<?xml version="1.0" encoding="utf-8" ?><svg xmlns="http://www.w3.org/2000/svg" xmlns:xlink="http://www.w3.org/1999/xlink" width="1024" height="1024" viewBox="0 0 1024 1024"><path fill="#6B7C3A" d="M493.066 313.052C494.398 314.057 495.48 314.63 496.133 316.133C497.312 316.661 498.416 317.119 499.548 317.744C501.816 318.866 501.654 318.36 502.778 320.185L502.919 323.413L503.461 323.517C503.74 320.572 504.217 320.646 506.585 319.941C507.825 320.378 508.803 320.552 509.625 321.541C510.86 321.999 512.197 321.9 513.309 321.248C514.705 320.657 514.719 320.758 516.247 320.488C518.18 321.458 518.511 321.175 520.253 320.268C521.065 319.607 522.028 319.006 522.905 318.417C524.275 318.851 524.343 319.043 525.674 318.664L526.513 316.564L529.454 314.759C530.313 325.465 529.88 340.979 529.868 351.99C536.407 357.982 542.826 364.103 549.122 370.35L608.954 370.464C621.487 381.819 637.77 399.84 650.109 412.263C655.839 417.996 661.603 423.694 667.4 429.358C670.507 432.399 675.226 436.697 677.763 440.029C677.907 443.797 678.381 459.072 677.621 462.047C681.651 461.126 702.766 461.597 708.429 461.587C714.202 468.792 724.497 480.979 729.537 488.241L729.534 488.981L729.634 799.141L435.715 799.154L341.645 799.254C327.383 799.281 306.482 799.966 292.779 799.192L292.811 623.529L292.854 552.475C292.866 541.312 292.494 527.578 292.91 516.641C292.28 509.424 292.64 496.277 292.546 488.474C295.723 483.545 310.693 466.74 315.275 461.546L343.917 461.557C343.631 454.68 343.711 446.958 343.63 440.014C348.119 434.513 362.233 421.315 368.185 415.548C383.001 401.194 398.495 384.45 413.482 370.501C432.32 369.907 454.053 370.446 473.115 370.488C480.019 364.215 486.631 357.628 492.929 350.748L492.831 327.241C492.81 323.379 492.575 316.667 493.066 313.052Z"/><path fill="#0D1B2A" d="M493.066 313.052C494.398 314.057 495.48 314.63 496.133 316.133C497.312 316.661 498.416 317.119 499.548 317.744C501.816 318.866 501.654 318.36 502.778 320.185L502.919 323.413L503.461 323.517C503.74 320.572 504.217 320.646 506.585 319.941C507.825 320.378 508.803 320.552 509.625 321.541C510.86 321.999 512.197 321.9 513.309 321.248C513.703 343.856 512.661 370.184 513.964 392.285C524.469 403.32 537.843 415.67 547.482 426.457C547.662 437.277 548.206 450.945 547.887 461.589C539.289 461.264 529.263 461.503 520.578 461.503C505.385 461.452 490.191 461.489 474.998 461.612L473.464 462.617C473.175 462.389 472.953 462.149 472.617 462.054L472.17 461.643C465.568 461.034 453.455 461.376 446.526 461.415C438.373 461.46 426.908 461.09 419.016 461.676L417.288 462.629L416.947 462.545L416.061 461.524C403.583 461.123 386.533 461.426 374.045 461.648L373.857 461.963C372.763 462.784 372.908 462.775 371.578 462.624L371.105 461.86C365.505 461.263 352.59 461.619 346.463 461.636L346.253 461.97C345.545 462.226 344.99 462.431 344.298 462.734L343.917 461.557C343.631 454.68 343.711 446.958 343.63 440.014C348.119 434.513 362.233 421.315 368.185 415.548C383.001 401.194 398.495 384.45 413.482 370.501C432.32 369.907 454.053 370.446 473.115 370.488C480.019 364.215 486.631 357.628 492.929 350.748L492.831 327.241C492.81 323.379 492.575 316.667 493.066 313.052Z"/><path fill="#0D1B2A" d="M493.066 313.052C494.398 314.057 495.48 314.63 496.133 316.133C497.312 316.661 498.416 317.119 499.548 317.744C501.816 318.866 501.654 318.36 502.778 320.185L502.919 323.413C502.159 330.918 502.546 354.177 502.891 362.361C502.833 365.402 502.731 368.546 502.763 371.576C497.481 377.42 490.923 383.296 485.342 389.009C467.337 389.027 444.578 388.215 426.995 388.939C410.092 405.818 391.455 425.078 373.989 441.145C374.001 447.759 373.85 455.097 374.045 461.648L373.857 461.963C372.763 462.784 372.908 462.775 371.578 462.624L371.105 461.86C365.505 461.263 352.59 461.619 346.463 461.636L346.253 461.97C345.545 462.226 344.99 462.431 344.298 462.734L343.917 461.557C343.631 454.68 343.711 446.958 343.63 440.014C348.119 434.513 362.233 421.315 368.185 415.548C383.001 401.194 398.495 384.45 413.482 370.501C432.32 369.907 454.053 370.446 473.115 370.488C480.019 364.215 486.631 357.628 492.929 350.748L492.831 327.241C492.81 323.379 492.575 316.667 493.066 313.052Z"/><path fill="#7B2FFF" d="M493.066 313.052C494.398 314.057 495.48 314.63 496.133 316.133C495.235 327.077 496.335 340.59 495.702 352.019C488.902 358.948 480.974 367.122 473.742 373.439C454.549 373.584 433.273 372.929 414.403 373.519C399.021 387.965 383.897 403.792 368.851 418.699C363.592 423.909 350.446 436.055 346.306 441.279L346.463 461.636L346.253 461.97C345.545 462.226 344.99 462.431 344.298 462.734L343.917 461.557C343.631 454.68 343.711 446.958 343.63 440.014C348.119 434.513 362.233 421.315 368.185 415.548C383.001 401.194 398.495 384.45 413.482 370.501C432.32 369.907 454.053 370.446 473.115 370.488C480.019 364.215 486.631 357.628 492.929 350.748L492.831 327.241C492.81 323.379 492.575 316.667 493.066 313.052Z"/><path fill="#7B2FFF" d="M499.548 317.744C501.816 318.866 501.654 318.36 502.778 320.185L502.919 323.413C502.159 330.918 502.546 354.177 502.891 362.361C502.833 365.402 502.731 368.546 502.763 371.576C497.481 377.42 490.923 383.296 485.342 389.009C467.337 389.027 444.578 388.215 426.995 388.939C410.092 405.818 391.455 425.078 373.989 441.145C374.001 447.759 373.85 455.097 374.045 461.648L373.857 461.963C372.763 462.784 372.908 462.775 371.578 462.624L371.105 461.86C371.038 454.833 371.022 447.805 371.057 440.778C372.89 438.364 375.352 436.088 377.56 434.004C394.129 418.368 409.885 401.806 426.275 386.015L484.44 386.003C489.646 381.131 494.873 375.792 499.949 370.744L499.548 317.744Z"/><path fill="#0D1B2A" d="M509.625 321.541C510.86 321.999 512.197 321.9 513.309 321.248C513.703 343.856 512.661 370.184 513.964 392.285C524.469 403.32 537.843 415.67 547.482 426.457C547.662 437.277 548.206 450.945 547.887 461.589C539.289 461.264 529.263 461.503 520.578 461.503C505.385 461.452 490.191 461.489 474.998 461.612L474.959 426.763L495.842 405.87C500.181 401.522 505.663 396.287 509.426 391.542L509.351 347.308C509.315 340.822 508.912 327.562 509.625 321.541Z"/><path fill="#0D1B2A" d="M457.236 404.993C466.426 404.949 484.458 405.399 492.987 404.5C486.281 411.796 479.281 418.815 472.003 425.54C472.031 437.373 471.877 449.865 472.17 461.643C465.568 461.034 453.455 461.376 446.526 461.415C438.373 461.46 426.908 461.09 419.016 461.676C418.979 455.461 418.871 449.076 418.943 442.878L442.822 419.371C447.011 415.204 452.994 408.736 457.236 404.993Z"/><path fill="#7B2FFF" d="M506.585 319.941C507.825 320.378 508.803 320.552 509.625 321.541C508.912 327.562 509.315 340.822 509.351 347.308L509.426 391.542C505.663 396.287 500.181 401.522 495.842 405.87L474.959 426.763L474.998 461.612L473.464 462.617C473.175 462.389 472.953 462.149 472.617 462.054L472.17 461.643C471.877 449.865 472.031 437.373 472.003 425.54C479.281 418.815 486.281 411.796 492.987 404.5C484.458 405.399 466.426 404.949 457.236 404.993C452.994 408.736 447.011 415.204 442.822 419.371L418.943 442.878C418.871 449.076 418.979 455.461 419.016 461.676L417.288 462.629L416.947 462.545L416.061 461.524L416.017 442.427C418.899 438.508 427.911 430.08 431.773 426.3L456.382 401.976C466.342 401.941 485.825 401.373 495.086 402.223C498.603 398.967 503.583 394.424 506.415 390.612C506.441 376.723 507.187 351.807 506.075 338.87C506.369 334.358 505.196 323.276 506.585 319.941Z"/><path fill="#1C161C" d="M502.919 323.413L503.461 323.517C503.74 320.572 504.217 320.646 506.585 319.941C505.196 323.276 506.369 334.358 506.075 338.87L506.021 339.445C505.397 346.674 506.347 354.467 505.758 361.496C504.916 371.548 504.91 380.626 504.683 390.624C503.138 386.478 505.731 368.782 502.891 362.361C502.546 354.177 502.159 330.918 502.919 323.413Z"/><path fill="#0D1B2A" d="M529.454 314.759C530.313 325.465 529.88 340.979 529.868 351.99C536.407 357.982 542.826 364.103 549.122 370.35L608.954 370.464C621.487 381.819 637.77 399.84 650.109 412.263C655.839 417.996 661.603 423.694 667.4 429.358C670.507 432.399 675.226 436.697 677.763 440.029C677.907 443.797 678.381 459.072 677.621 462.047C678.765 465.166 683.325 466.137 684.25 470.223C685.937 477.677 676.452 481.477 671.15 477.202C669.89 476.169 669.091 474.679 668.925 473.058C668.435 468.13 672.147 465.971 674.589 462.638L675.128 461.89C671.8 461.231 655.655 461.596 651.155 461.643L650.879 461.958C649.93 461.915 649.595 461.857 648.679 461.996L648.126 461.603C643.948 461.229 634.849 461.451 630.184 461.47C622.878 461.499 613.315 461.162 606.194 461.679L605.183 462.639L604.548 462.483L603.48 461.53C587.55 460.831 566.715 461.472 550.372 461.518L550.161 461.484C549.312 461.737 548.915 461.875 548.053 462.009L547.887 461.589C548.206 450.945 547.662 437.277 547.482 426.457C537.843 415.67 524.469 403.32 513.964 392.285C512.661 370.184 513.703 343.856 513.309 321.248C514.705 320.657 514.719 320.758 516.247 320.488C518.18 321.458 518.511 321.175 520.253 320.268C521.065 319.607 522.028 319.006 522.905 318.417C524.275 318.851 524.343 319.043 525.674 318.664L526.513 316.564L529.454 314.759Z"/><path fill="#0D1B2A" d="M529.454 314.759C530.313 325.465 529.88 340.979 529.868 351.99C536.407 357.982 542.826 364.103 549.122 370.35L608.954 370.464C621.487 381.819 637.77 399.84 650.109 412.263C655.839 417.996 661.603 423.694 667.4 429.358C670.507 432.399 675.226 436.697 677.763 440.029C677.907 443.797 678.381 459.072 677.621 462.047C678.765 465.166 683.325 466.137 684.25 470.223C685.937 477.677 676.452 481.477 671.15 477.202C669.89 476.169 669.091 474.679 668.925 473.058C668.435 468.13 672.147 465.971 674.589 462.638L675.128 461.89C671.8 461.231 655.655 461.596 651.155 461.643L650.879 461.958C649.93 461.915 649.595 461.857 648.679 461.996L648.126 461.603L647.99 441.189C636.105 428.411 622.89 416.422 610.744 403.862C605.905 398.857 600.795 393.666 595.693 388.962C576.404 389.139 557.114 389.189 537.824 389.113C532.34 382.87 526.212 376.878 520.335 370.973C520.136 354.254 520.83 336.916 520.253 320.268C521.065 319.607 522.028 319.006 522.905 318.417C524.275 318.851 524.343 319.043 525.674 318.664L526.513 316.564L529.454 314.759Z"/><path fill="#7B2FFF" d="M529.454 314.759C530.313 325.465 529.88 340.979 529.868 351.99C536.407 357.982 542.826 364.103 549.122 370.35L608.954 370.464C621.487 381.819 637.77 399.84 650.109 412.263C655.839 417.996 661.603 423.694 667.4 429.358C670.507 432.399 675.226 436.697 677.763 440.029C677.907 443.797 678.381 459.072 677.621 462.047C678.765 465.166 683.325 466.137 684.25 470.223C685.937 477.677 676.452 481.477 671.15 477.202C669.89 476.169 669.091 474.679 668.925 473.058C668.435 468.13 672.147 465.971 674.589 462.638L675.128 461.89C674.54 456.375 674.741 446.906 674.708 441.184C670.246 436.025 664.559 430.611 659.676 425.686L635.856 401.607L618.505 384.097C615.418 380.983 610.92 376.173 607.612 373.537L548.049 373.474C541.739 367.776 533.061 358.552 526.752 352.392C526.042 342.96 526.519 326.448 526.513 316.564L529.454 314.759Z"/><path fill="#7B2FFF" d="M522.905 318.417C523.503 322.118 523.4 335.284 523.308 339.957C523.124 349.297 523.805 360.964 523.278 369.957C528.323 375.039 534.248 380.751 538.999 386.001L597.113 385.994C608.249 397.359 619.46 408.651 630.745 419.868C636.657 425.773 645.593 434.146 650.986 440.211L651.155 461.643L650.879 461.958C649.93 461.915 649.595 461.857 648.679 461.996L648.126 461.603L647.99 441.189C636.105 428.411 622.89 416.422 610.744 403.862C605.905 398.857 600.795 393.666 595.693 388.962C576.404 389.139 557.114 389.189 537.824 389.113C532.34 382.87 526.212 376.878 520.335 370.973C520.136 354.254 520.83 336.916 520.253 320.268C521.065 319.607 522.028 319.006 522.905 318.417Z"/><path fill="#0D1B2A" d="M529.208 404.61C539.359 405.39 554.627 404.96 565.104 404.964C577.435 416.505 591.082 431.031 603.008 443.308C603.138 449.208 603.168 455.675 603.48 461.53C587.55 460.831 566.715 461.472 550.372 461.518L550.161 461.484C550.238 449.409 550.212 437.335 550.082 425.261C545.812 419.773 534.557 409.695 529.208 404.61Z"/><path fill="#7B2FFF" d="M516.247 320.488C516.667 343.999 516.064 367.583 516.534 391.214C520.037 394.773 523.627 398.515 527.174 402.008C540.078 402.008 553.463 401.818 566.325 402.025C579.086 415.134 593.728 429.057 606.045 442.075C606.083 448.174 605.918 455.702 606.194 461.679L605.183 462.639L604.548 462.483L603.48 461.53C603.168 455.675 603.138 449.208 603.008 443.308C591.082 431.031 577.435 416.505 565.104 404.964C554.627 404.96 539.359 405.39 529.208 404.61C534.557 409.695 545.812 419.773 550.082 425.261C550.212 437.335 550.238 449.409 550.161 461.484C549.312 461.737 548.915 461.875 548.053 462.009L547.887 461.589C548.206 450.945 547.662 437.277 547.482 426.457C537.843 415.67 524.469 403.32 513.964 392.285C512.661 370.184 513.703 343.856 513.309 321.248C514.705 320.657 514.719 320.758 516.247 320.488Z"/><path fill="#6B7C3A" d="M550.161 461.484L550.372 461.518C566.715 461.472 587.55 460.831 603.48 461.53L604.548 462.483L605.183 462.639L606.194 461.679C613.315 461.162 622.878 461.499 630.184 461.47C634.849 461.451 643.948 461.229 648.126 461.603L648.679 461.996C649.595 461.857 649.93 461.915 650.879 461.958L651.155 461.643C655.655 461.596 671.8 461.231 675.128 461.89L674.589 462.638C672.147 465.971 668.435 468.13 668.925 473.058C669.091 474.679 669.89 476.169 671.15 477.202C676.452 481.477 685.937 477.677 684.25 470.223C683.325 466.137 678.765 465.166 677.621 462.047C681.651 461.126 702.766 461.597 708.429 461.587C714.202 468.792 724.497 480.979 729.537 488.241C713.868 489.12 691.981 488.47 675.86 488.47L574.689 488.475L292.546 488.474C295.723 483.545 310.693 466.74 315.275 461.546L343.917 461.557L344.298 462.734C344.99 462.431 345.545 462.226 346.253 461.97L346.463 461.636C352.59 461.619 365.505 461.263 371.105 461.86L371.578 462.624C372.908 462.775 372.763 462.784 373.857 461.963L374.045 461.648C386.533 461.426 403.583 461.123 416.061 461.524L416.947 462.545L417.288 462.629L419.016 461.676C426.908 461.09 438.373 461.46 446.526 461.415C453.455 461.376 465.568 461.034 472.17 461.643L472.617 462.054C472.953 462.149 473.175 462.389 473.464 462.617L474.998 461.612C490.191 461.489 505.385 461.452 520.578 461.503C529.263 461.503 539.289 461.264 547.887 461.589L548.053 462.009C548.915 461.875 549.312 461.737 550.161 461.484Z"/><path fill="#7B2FFF" d="M648.679 461.996C649.595 461.857 649.93 461.915 650.879 461.958C651.729 464.388 654.119 464.09 655.958 466.263C658.869 469.7 658.612 474.93 654.977 477.752C652.985 479.298 651.246 479.941 648.749 479.488C640.491 477.988 639.856 468.407 646.513 464.274C647.866 463.429 648.063 463.389 648.679 461.996Z"/><path fill="#7B2FFF" d="M344.298 462.734C344.99 462.431 345.545 462.226 346.253 461.97C346.226 464.195 357.827 468.245 352.144 476.313C348.134 482.005 339.258 480.135 337.703 473.703C336.281 466.873 341.439 466.395 344.298 462.734Z"/><path fill="#7B2FFF" d="M371.578 462.624C372.908 462.775 372.763 462.784 373.857 461.963C374.715 465.547 380.085 465.764 380.312 469.513C381.292 485.713 357.07 480.104 366.739 466.451C367.804 464.947 370.115 463.914 371.578 462.624Z"/><path fill="#7B2FFF" d="M416.947 462.545L417.288 462.629C419.02 464.018 420.816 463.644 423.045 465.396C424.699 466.706 425.73 468.648 425.886 470.752C426.753 481.03 409.602 482.386 410.107 471.253C410.306 466.868 413.668 465.836 416.267 463.234L416.947 462.545Z"/><path fill="#7B2FFF" d="M472.617 462.054C472.953 462.149 473.175 462.389 473.464 462.617C476.661 464.498 481.566 466.02 481.531 470.743C481.449 481.586 464.746 482.028 466.148 470.247C466.675 465.815 471.158 464.781 472.617 462.054Z"/><path fill="#7B2FFF" d="M604.548 462.483L605.183 462.639C607.796 464.566 613.201 467.131 613.011 470.998C612.855 474.467 608.396 479.828 604.756 479.34C600.109 478.717 596.594 475.032 597.507 470.249C598.281 466.194 601.764 464.696 604.548 462.483Z"/><path fill="#7B2FFF" d="M547.971 463.014L549.993 463.565C564.664 466.435 552.029 486.949 543.006 476.247C538.467 470.863 543.691 466.306 547.971 463.014Z"/><path fill="#7B2FFF" d="M550.161 461.484L550.372 461.518L549.993 463.565L547.971 463.014L548.053 462.009C548.915 461.875 549.312 461.737 550.161 461.484Z"/><path fill="#4A5A28" d="M729.537 488.241L729.534 488.981C726.016 489.527 720.222 489.406 716.442 489.441C707.406 489.486 698.37 489.475 689.334 489.409L599.317 489.271C530.827 489.838 462.334 489.937 393.842 489.57L330.201 489.514C318.13 489.508 305.063 489.737 293.061 489.321C293.094 496.866 293.52 509.446 292.91 516.641C292.28 509.424 292.64 496.277 292.546 488.474L574.689 488.475L675.86 488.47C691.981 488.47 713.868 489.12 729.537 488.241Z"/><path fill="white" d="M632.009 514.54L691.769 514.521C691.496 560.552 692.321 606.77 691.846 652.849C698.749 652.712 705.912 652.799 712.838 652.794C712.953 673.522 712.964 694.25 712.871 714.977L691.649 714.988L691.834 773.303L685.25 773.34L630.485 773.424L630.684 714.59C621.982 714.769 613.279 714.843 604.576 714.815L604.512 652.795C612.917 652.424 623.479 652.782 632.039 652.835L632.009 514.54Z"/><path fill="white" d="M352.65 514.584L403.028 514.593L403.043 571.508L382.724 571.518C379.879 574.357 378.106 576.318 375.539 579.414C376.1 622.361 375.572 666.653 375.535 709.688C377.956 712.755 379.482 714.065 382.419 716.697L403.013 716.824L402.841 773.146L391.75 773.195L354.53 773.331C340.9 759.238 327.041 744.362 313.543 730.087L313.562 556.129C326.689 542.373 339.719 528.524 352.65 514.584Z"/><path fill="white" d="M609.178 514.501L617.283 514.55C617.901 542.782 617.685 575.005 617.264 603.253C607.792 617.381 599.099 632.102 589.88 646.478L590.009 714.891L534.75 714.891L525.5 714.91L525.479 642.252C530.446 633.525 538.344 623.066 543.927 614.211C564.821 581.075 588.903 547.913 609.178 514.501Z"/><path fill="white" d="M441.404 680.734C461.795 680.186 484.777 680.705 505.292 680.734C505.687 696.522 505.413 713.472 505.446 729.352C495.006 739.374 482.619 753.134 472.399 763.793L462.865 773.443L417.855 773.476L417.798 716.836C423.227 716.665 429.236 716.842 434.793 716.74L440.584 710.677C440.749 706.196 440.088 682.887 441.404 680.734Z"/><path fill="white" d="M417.811 514.598C432.999 514.291 449.208 514.584 464.479 514.588C470.561 520.575 476.221 527.02 482.154 533.17C489.829 541.126 497.722 548.87 505.269 556.945C505.258 571.804 505.627 588.742 505.027 603.434L440.628 603.408C440.609 594.943 440.632 586.477 440.698 578.012C438.451 575.818 436.172 573.659 433.859 571.535L417.744 571.636L417.811 514.598Z"/><path d="M488.946 229.065C474.827 216.442 503.222 213.25 510.762 213.491C518.985 213.753 529.985 214.359 536.819 219.637C540.493 222.661 537.601 226.635 535.564 229.672L535.143 278.088C535.142 284.58 535.18 291.148 535.205 297.638C535.232 304.685 534.988 307.587 530.592 313.283L529.454 314.759L526.513 316.564L525.674 318.664C524.343 319.043 524.275 318.851 522.905 318.417C522.028 319.006 521.065 319.607 520.253 320.268C518.511 321.175 518.18 321.458 516.247 320.488C514.719 320.758 514.705 320.657 513.309 321.248C512.197 321.9 510.86 321.999 509.625 321.541C508.803 320.552 507.825 320.378 506.585 319.941C504.217 320.646 503.74 320.572 503.461 323.517L502.919 323.413L502.778 320.185C501.654 318.36 501.816 318.866 499.548 317.744C498.416 317.119 497.312 316.661 496.133 316.133C495.48 314.63 494.398 314.057 493.066 313.052C491.192 309.973 489.798 307.76 489.446 304.065C488.64 295.622 488.968 286.013 488.979 277.471L488.946 229.065Z"/><path fill="white" d="M528.903 233.168L529.68 233.204C529.993 233.82 530.426 294.954 529.655 299.744C528.323 300.632 526.815 300.368 525.129 300.351L524.875 300.203C523.936 298.627 523.788 238.816 524.292 234.501C525.479 233.455 527.243 233.429 528.903 233.168Z"/><path fill="white" d="M509.125 218.583C512.278 218.514 518.362 218.486 519.758 222.067C520.502 223.977 516.387 225.266 515.361 225.586C512.888 225.676 505.131 226.131 503.566 222.591C502.758 220.764 507.745 218.997 509.125 218.583Z"/></svg>